# xmcd CD database file
#
# Track frame offsets:
#	150
#	18065
#	35977
#	53957
#	77475
#
# Disc length: 1344 seconds
#
# Revision: 0
# Processed by: cddbd v1.5.1PL0 Copyright (c) Steve Scherf et al.
# Submitted via: CDex 1.50
#
DISCID=34053e05
DTITLE=浜　博也 - 恋の河
DYEAR=1900
DGENRE=Japanese Pop
TTITLE0=恋の河
TTITLE1=恋の河 (オリジナルカラオケ)
TTITLE2=恋の河 (一般用メロ入りカラオケ)
TTITLE3=北信濃
TTITLE4=北信濃 (オリジナルカラオケ)
EXTD=
EXTT0=
EXTT1=
EXTT2=
EXTT3=
EXTT4=
PLAYORDER=
